<svg width="24.000000" height="24.000000" viewBox="0 0 24 24" fill="none" xmlns="http://www.w3.org/2000/svg">
	<path id="矢量 488" d="M6.14453 4C6.49023 4.38379 6.9209 4.91553 7.43652 5.59521C7.95508 6.27197 8.33447 6.81396 8.57471 7.22119L7.4585 8.13965C7.2417 7.68555 6.89014 7.11719 6.40381 6.43457C5.91748 5.74902 5.48242 5.18359 5.09863 4.73828L6.14453 4ZM9.40088 4.95361L18.959 4.95361L18.959 17.645C18.959 18.2075 18.8872 18.6382 18.7437 18.937C18.6001 19.2388 18.3452 19.4614 17.979 19.605C17.6128 19.7485 17.0635 19.8452 16.3311 19.895L15.25 19.9653L14.7842 18.6162L16.1157 18.5459C16.5815 18.5195 16.9199 18.4668 17.1309 18.3877C17.3418 18.3115 17.4795 18.187 17.5439 18.0142C17.6113 17.8384 17.645 17.5718 17.645 17.2144L17.645 6.23242L9.40088 6.23242L9.40088 4.95361ZM8.95264 9.58105L8.95264 8.35498L16.9595 8.35498L16.9595 9.58105L8.95264 9.58105ZM4 9.5459L7.40137 9.5459L7.40137 17.0122L8.89551 15.6455L9.3833 16.7793C9.23975 16.8994 8.93945 17.1763 8.48242 17.6099C7.84668 18.2075 7.43213 18.5913 7.23877 18.7612C6.85498 19.145 6.59131 19.4146 6.44775 19.5698L5.56445 18.6338C5.75781 18.4287 5.89551 18.2222 5.97754 18.0142C6.0625 17.8032 6.10498 17.5366 6.10498 17.2144L6.10498 10.8774L4 10.8774L4 9.5459ZM9.81396 17.1748L9.81396 11.6157L15.5752 11.6157L15.5752 17.1748L9.81396 17.1748ZM14.3491 12.8022L11.04 12.8022L11.04 15.9355L14.3491 15.9355L14.3491 12.8022Z" fill-rule="nonzero" fill="currentColor"/>
</svg>
