<svg width="24.000000" height="24.000000" viewBox="0 0 24 24" fill="none" xmlns="http://www.w3.org/2000/svg" xmlns:xlink="http://www.w3.org/1999/xlink">
	<path id="vector" d="M3.62791 5C3.28113 5 3 5.28491 3 5.63635C3 5.98779 3.28113 6.27271 3.62791 6.27271L18.6977 6.27271C19.0445 6.27271 19.3256 5.98779 19.3256 5.63635C19.3256 5.28491 19.0445 5 18.6977 5L3.62791 5ZM20.3721 10.5151L19.3256 10.5151L19.3256 17.0909C19.3256 18.1453 18.4822 19 17.4419 19C16.4015 19 15.5581 18.1453 15.5581 17.0909C15.5581 16.0366 16.4015 15.1819 17.4419 15.1819C17.662 15.1819 17.8734 15.2201 18.0698 15.2904L18.0698 10.3879C18.0698 9.75525 18.5758 9.24243 19.2 9.24243L20.3721 9.24243C20.7189 9.24243 21 9.52734 21 9.87878C21 10.2302 20.7189 10.5151 20.3721 10.5151ZM3 10.7273C3 10.3759 3.28113 10.0909 3.62791 10.0909L15.3488 10.0909C15.6956 10.0909 15.9767 10.3759 15.9767 10.7273C15.9767 11.0787 15.6956 11.3636 15.3488 11.3636L3.62791 11.3636C3.28113 11.3636 3 11.0787 3 10.7273ZM12.8372 16.4545L3.62791 16.4545C3.28113 16.4545 3 16.1696 3 15.8181C3 15.4667 3.28113 15.1818 3.62791 15.1818L12.8372 15.1818C13.184 15.1818 13.4651 15.4667 13.4651 15.8181C13.4651 16.1696 13.184 16.4545 12.8372 16.4545Z" clip-rule="evenodd" fill-rule="evenodd" fill="currentColor" fill-opacity="1.000000"/>
</svg>
