<svg width="24.000000" height="24.000000" viewBox="0 0 24 24" fill="none" xmlns="http://www.w3.org/2000/svg" xmlns:xlink="http://www.w3.org/1999/xlink">
	<path id="path" d="M5.84871 6.29553C6.34871 6.29553 6.59871 6.54553 6.59871 7.04553L6.59871 17.5455C6.59871 18.0455 6.34871 18.2955 5.84871 18.2955L5.09871 18.2955C4.59871 18.2955 4.34871 18.0455 4.34871 17.5455L4.34871 7.04553C4.34871 6.54553 4.59871 6.29553 5.09871 6.29553L5.84871 6.29553ZM15.7937 6.60559C17.0437 5.89258 18.5987 6.79553 18.5987 8.23547L18.5987 16.3575C18.5987 17.7975 17.0437 18.7006 15.7937 17.9855L8.68571 13.9246C7.4257 13.2046 7.4257 11.3885 8.68571 10.6686L15.7937 6.60559Z" fill-rule="nonzero" fill="currentColor"/>
</svg>
