<svg width="24.000000" height="24.000000" viewBox="0 0 24 24" fill="none" xmlns="http://www.w3.org/2000/svg">
	<defs/>
	<path id="矢量 489" d="M7.13965 6.98828C6.70898 6.17969 5.77295 4.91846 4.97754 4L3.97119 4.646C4.72705 5.604 5.64551 6.93555 6.05859 7.76172L7.13965 6.98828ZM14.395 14.0063L17.9766 14.0063L17.9766 12.8198L14.395 12.8198L14.395 11.2378L13.0811 11.2378L13.0811 12.8198L9.53467 12.8198L9.53467 14.0063L13.0811 14.0063L13.0811 15.896L8.5415 15.896L8.5415 16.4189C8.43604 16.186 8.32617 15.9355 8.25586 15.7158L6.81445 16.7793L6.81445 9.16797L3 9.16797L3 10.46L5.51807 10.46L5.51807 16.8496C5.51807 17.7329 4.97754 18.3438 4.63916 18.5986C4.88965 18.814 5.23242 19.3018 5.39502 19.5698C5.62793 19.2622 6.05859 18.8843 8.5415 16.9771L8.5415 17.1045L13.0811 17.1045L13.0811 20.0576L14.395 20.0576L14.395 17.1045L19.1455 17.1045L19.1455 15.896L14.395 15.896L14.395 14.0063ZM16.5352 5.72705C15.832 6.69824 14.9136 7.54639 13.8369 8.28467C12.8262 7.56396 12 6.69824 11.3672 5.72705L16.5352 5.72705ZM17.5591 4.48779L17.3438 4.54053L8.77881 4.54053L8.77881 5.72705L10.0532 5.72705C10.7563 6.9707 11.6748 8.02979 12.7734 8.94824C11.2617 9.83154 9.55225 10.4995 7.89551 10.895C8.12842 11.1631 8.45361 11.686 8.59863 12.0288C10.3784 11.541 12.2153 10.7852 13.8369 9.76123C15.2739 10.6973 16.9131 11.418 18.6973 11.8486C18.873 11.5059 19.2334 10.9829 19.5234 10.75C17.8315 10.3896 16.2847 9.79639 14.9312 9.00537C16.4077 7.90674 17.6162 6.5752 18.4072 4.97119L17.5591 4.48779Z" fill-rule="nonzero" fill="currentColor"/>
</svg>
